<svg xmlns="http://www.w3.org/2000/svg" xml:space="preserve" id="Layer_1" x="0" y="0" version="1.1" viewBox="0 0 362.8 90.7"><style>.st2{fill:#b9e9f3}.st3{fill:#5fcee8}.st4{fill:#38aac7}.st5{fill:#1d6073}.st6{fill:#eef8fa}.st7{fill:#1a4753}.st8{fill:#26505c}</style><path d="M91.5 34.2c.1.4.4.7.8.8.4.7.4 1.4.5 2.2 0 2.2.1 4.5.1 6.7-.2.4-.3.8 0 1.2v1.6c-.3 3.6-.3 7.3 0 10.9-.2.5-.3 1 0 1.6-.2 5.4-.7 4.1 4 4.3.3 0 .5-.1.8-.1h1.2c1.6 0 3.1.1 4.7.1 1.3 0 2 .5 2 1.9-.1 1.3.1 2.6.1 3.9v.8c0 .8-.1 1.7-.1 2.5 0 3.4 0 3.4 3.5 3.1.4.1.8.1 1.2.2.9 1.1.5 2-.5 2.7-1.9.4-3.6 1.3-5.3 2-.8.2-1.6.4-2.4.7-1 .2-2 .3-3.1.5H51.4c-3.6-.2-7.3-.2-10.9 0h-.8c-3.6-.2-7.3-.2-10.9 0H28c-3.6-.2-7.3-.2-10.9 0h-.8c-.8 0-1.7-.1-2.5-.1-.3-.4-.6-.7-1-1.1.2-2.1 2.1-2.1 3.5-2.8 1.1.2 1.4-.4 1.4-1.3 0-2.1-.1-4.3-.1-6.4v-.8l.3-5.4c.7-.4 1.5-.4 2.2-.4 2.6 0 5.2-.1 7.9-.1h.8c1.3.3 1.7-.1 1.6-1.4-.1-1.2-.1-2.4-.1-3.6v-.8c.2-3.6.2-7.3 0-10.9v-.8c0-2.9.1-5.8.1-8.7 0-.8-.1-1.6.6-2.1.4-.1.6-.4.7-.7 2.8-2.6 5.5-5.3 8.1-8.2 1.3-1 2.5-2.2 3.5-3.6 2.9-2.7 5.7-5.4 8.3-8.4.5-.2.8-.5 1-1 .5-.3 1-.7 1.2-1.3.5-.1.7-.5 1-.9 2.8-.7 5.6-.1 8.4-.5h.4c2.2.3 4.7-.4 6.6 1.3.1.4.4.6.7.8.7 1 1.5 1.8 2.5 2.6.4.9 1.2 1.4 1.9 2 2.1 2.1 4.2 4.3 6.3 6.4l.3.3c1.7 1.3 2.6 3.3 4.4 4.5 0 .2.1.4.4.4 1.1 2 2.9 3.7 4.8 5.4m-37.6 23v-4c0-1.1-.4-1.5-1.5-1.4-2.4.1-4.8 0-7.1 0-.1.1-.2.2-.2.3-.1 3.4-.1 6.9-.1 10.4 0 .8.6.9 1.2.9H53c1.1 0 1.3-.5 1.3-1.4.1-1.6-.2-3.2-.4-4.8m2.8-5.8c-.9-.1-.7.6-.7 1v21.9c0 1.1.4 1.5 1.5 1.4 2.8 0 5.6-.1 8.4 0 1.4 0 1.6-.5 1.6-1.7V52.6c0-.5.4-1.3-.6-1.3h-4.3c-2 .1-4 .1-5.9.1m35.8 14.8c.3-.9-.3-.8-.8-.8h-8.6c-1 0-1.2.4-1.2 1.3V76c0 1.1.4 1.5 1.5 1.5h8c1.2 0 1.5-.5 1.1-1.5.2-3.4.2-6.6 0-9.8M56.1 49.5h22c1.4 0 2-.3 1.9-1.8-.1-2.9-.1-5.7 0-8.6 0-1.2-.3-1.7-1.7-1.7H33.6c-1.3 0-1.7.4-1.7 1.7q.15 4.2 0 8.4c-.1 1.6.4 2.1 2.1 2.1 7.4-.2 14.8-.1 22.1-.1m-.4-13.8h20.7c.5 0 1.3.3 1.6-.4.2-.6-.4-.9-.8-1.3-6.6-6.9-13.3-13.7-19.8-20.6-1-1.1-1.6-1-2.6 0C48 20.3 41.2 27.1 34.5 34c-.4.4-1.1.7-.9 1.4.3.6 1 .3 1.6.3zm3.8-23.3c0 .9.6 1.2 1 1.6 5.4 5.7 11.1 11.1 16.2 17.1 3.1 3.7 6.5 5.4 11.3 4.6h.2c.4-.1 1 .2 1.3-.2.4-.6-.3-.9-.6-1.3-6.7-7-13.4-14-20.1-20.9-.4-.4-.7-.9-1.3-.9zM44.8 71v5c0 1.1.3 1.5 1.4 1.5 2.1-.1 4.1-.1 6.2 0 1.4 0 1.8-.6 1.8-1.9-.1-2.2 0-4.4 0-6.6 0-3.6 0-3.6-3.5-3.6-1.9 0-4.3-.8-5.5.3-1.2 1.2-.1 3.7-.4 5.3m24.4-.3v5c-.1 1.3.5 1.7 1.7 1.7 2.5-.1 5.1-.1 7.6 0 1.3 0 1.6-.5 1.5-1.6-.1-1.7 0-3.5 0-5.3 0-5.2 0-5.2-5.1-5.2-1.9 0-4.2-.8-5.4.4-1.1 1.2-.2 3.6-.3 5M69.1 57v5.2c0 .9.3 1.3 1.2 1.3h8.4c1 0 1.3-.4 1.3-1.4-.1-1.9 0-3.8 0-5.6 0-5 0-5.1-5-5-1.9 0-4.3-.8-5.5.3-1.2 1.2-.1 3.7-.4 5.2m25.4 14.3V76c0 1.1.4 1.5 1.5 1.4q3-.15 6 0c1.2 0 1.6-.3 1.6-1.5-.1-3-.1-6.1 0-9.1 0-1.2-.4-1.4-1.5-1.4-1.7.1-3.5.1-5.3 0-1.8-.2-2.6.3-2.4 2.3.3 1.1.1 2.4.1 3.6M81.9 57.2V62c0 1 .3 1.4 1.3 1.4 2.1-.1 4.3-.1 6.4 0 1 0 1.4-.3 1.4-1.3v-9.3c0-1-.3-1.4-1.3-1.4-2.1.1-4.3.1-6.4 0-1 0-1.4.4-1.3 1.4 0 1.5-.1 2.9-.1 4.4M30.1 71.3v-4.5c0-1-.2-1.5-1.4-1.5-2.7.1-5.5.1-8.2 0-1 0-1.4.3-1.4 1.3v9.1c0 1 .3 1.6 1.4 1.6h8.2c1.1 0 1.3-.5 1.3-1.4.1-1.5.1-3 .1-4.6m12.9.5c0-1.9-.1-3.6 0-5.2 0-1-.3-1.3-1.3-1.3-2.8.1-5.6 0-8.4 0-.9 0-1.3.3-1.2 1.2.1 1.9 0 3.9 0 5.8 0 5 0 5 5 5 1.9 0 4.3.8 5.5-.3s.1-3.6.4-5.2m0-14V53c0-1.1-.3-1.7-1.5-1.6-2.7.1-5.3.1-8 0-1.1 0-1.5.4-1.4 1.5.1 1.9 0 3.8 0 5.6 0 4.9 0 4.9 5 4.9 1.9 0 4.3.8 5.5-.3 1.2-1.2.1-3.7.4-5.3m48-14.2v-4.5c0-.9-.2-1.5-1.3-1.5h-6.4c-.9.1-1.3.4-1.3 1.4v9.1c0 1 .4 1.4 1.4 1.3h6.2c1 0 1.4-.4 1.4-1.4z" style="fill:#163941"/><path d="M56.1 49.5h-22c-1.6 0-2.1-.5-2.1-2.1q.15-4.2 0-8.4c0-1.3.5-1.7 1.7-1.7h44.7c1.3 0 1.7.5 1.7 1.7-.1 2.9-.1 5.7 0 8.6.1 1.5-.5 1.8-1.9 1.8-7.4.1-14.7.1-22.1.1m22-1.1c1.1-.3.9-1.1.9-1.7v-5.6c0-2.3-.2-2.5-2.6-2.5H34c-.4 0-.9.1-.9.5-.1.7.6.5 1 .6h41.2c2.7 0 2.8 0 2.8 2.8z" style="fill:#349fbd"/><path d="M55.7 35.7H35.2c-.6 0-1.3.3-1.6-.3s.5-1 .9-1.4c6.7-6.9 13.5-13.7 20.2-20.6 1-1 1.6-1.1 2.6 0 6.6 6.9 13.2 13.8 19.8 20.6.3.4 1 .7.8 1.3-.3.7-1 .4-1.6.4zm19.4-1.2c.3-.4.1-.6-.1-.8-5.8-6.4-11.8-12.7-18-18.8-.3-.3-.6-.7-1-.3-.3.3-.1.7.2 1 1.3 1.5 2.7 3 4 4.4 3.1 3.4 6.2 6.8 9.4 10.1 1.7 1.7 3 3.8 5.5 4.4" class="st2"/><path d="M59.5 12.4h7.9c.6 0 .9.5 1.3.9 6.7 7 13.4 13.9 20.1 20.9.3.3 1 .6.6 1.3-.3.5-.8.2-1.3.2h-.2c-4.7.8-8.1-.9-11.3-4.6-5.1-6-10.8-11.4-16.2-17.1-.3-.4-.9-.6-.9-1.6M44.8 71c.2-1.6-.9-4 .4-5.3 1.2-1.1 3.6-.3 5.5-.3 3.5-.1 3.5 0 3.5 3.6v6.6c0 1.3-.4 1.9-1.8 1.9-2.1-.1-4.1-.1-6.2 0-1.1 0-1.5-.4-1.4-1.5.1-1.6 0-3.2 0-5" class="st3"/><path d="M69.2 70.7c.1-1.5-.8-3.8.3-4.9 1.2-1.2 3.6-.4 5.4-.4 5.1-.1 5.1 0 5.1 5.2v5.3c0 1.1-.3 1.7-1.5 1.6-2.5-.1-5.1-.1-7.6 0-1.2 0-1.8-.4-1.7-1.7zm10.1.5c0-1.2-.1-2.3 0-3.5s-.4-1.6-1.6-1.6c-2.1.1-4.3 0-6.4 0-.4 0-1.1-.2-1.1.4-.1.7.6.7 1.1.8 1.6 0 3.3.1 4.9 0 1.5-.1 2.1.3 2 1.9-.1 2 0 4 0 6 0 .4 0 .9.5.9.7.1.7-.5.7-.9-.1-1.3-.1-2.7-.1-4" class="st4"/><path d="M69.1 57c.2-1.6-.9-4 .4-5.3 1.2-1.1 3.6-.3 5.5-.3 5 0 5 0 5 5V62c0 1-.3 1.4-1.3 1.4-2.8-.1-5.6 0-8.4 0-.9 0-1.3-.3-1.2-1.3.1-1.5 0-3.1 0-5.1m10.2.4v-3.9c0-.8-.3-1.4-1.2-1.4h-7c-.5 0-1 .1-.9.7.1.5.6.4 1 .4 1.8 0 3.6.1 5.4 0 1.2 0 1.6.4 1.6 1.6-.1 2.2 0 4.4 0 6.6 0 .4-.1.9.4 1 .6.1.7-.4.7-.9z" class="st2"/><path d="M94.5 71.3c0-1.2.1-2.5 0-3.7-.3-2 .6-2.5 2.4-2.3 1.7.2 3.5.1 5.3 0 1 0 1.5.2 1.5 1.4-.1 3-.1 6.1 0 9.1 0 1.2-.4 1.6-1.6 1.5q-3-.15-6 0c-1.1 0-1.5-.3-1.5-1.4 0-1.5-.1-3-.1-4.6M81.9 57.2v-4.5c0-1 .3-1.4 1.3-1.4 2.1.1 4.3.1 6.4 0 1 0 1.3.5 1.3 1.4V62c0 1-.3 1.4-1.4 1.3-2.1-.1-4.3-.1-6.4 0-1 0-1.3-.4-1.3-1.4.2-1.4.1-3 .1-4.7" class="st3"/><path d="M30.1 71.3V76c0 .9-.2 1.4-1.3 1.4-2.7-.1-5.5 0-8.2 0-1.1 0-1.5-.5-1.4-1.6v-9.1c0-1 .3-1.4 1.4-1.3 2.7 0 5.5.1 8.2 0 1.2 0 1.4.5 1.4 1.5-.1 1.4-.1 2.9-.1 4.4m-.8 0v-3.5c0-1.1-.4-1.7-1.6-1.7h-6.6c-.4 0-1 0-1 .6s.6.6 1 .6c1.8 0 3.5.1 5.3 0 1.1 0 1.5.4 1.5 1.5-.1 2.1 0 4.1 0 6.2 0 .5-.1 1.2.6 1.2.8 0 .9-.6.9-1.2-.1-1.3-.1-2.5-.1-3.7" class="st4"/><path d="M43 71.8c-.2 1.6.9 4.1-.4 5.3-1.2 1.1-3.6.3-5.5.3-5 0-5 0-5-5v-5.8c0-.9.3-1.2 1.2-1.2h8.4c1 0 1.4.3 1.3 1.3-.1 1.6 0 3.2 0 5.1m-.8-.5v-3.7c0-.8-.2-1.5-1.2-1.5h-7.2c-.4 0-.9.1-.8.6 0 .5.4.6.9.6 1.8 0 3.5.1 5.3 0 1.2 0 1.6.3 1.6 1.6-.1 2 0 4 0 6 0 .5-.2 1.3.7 1.3.8 0 .8-.7.8-1.3-.1-1.2-.1-2.4-.1-3.6" class="st2"/><path d="M43 57.8c-.2 1.6.9 4.1-.4 5.3-1.2 1.1-3.6.3-5.5.3-5 0-5 0-5-4.9v-5.6c0-1.1.3-1.5 1.4-1.5 2.7.1 5.3.1 8 0 1.3 0 1.6.5 1.5 1.6-.1 1.5 0 3 0 4.8m-.8-.4v-3.7c0-1.2-.5-1.6-1.7-1.6h-6.4c-.5 0-1.2-.1-1.1.7 0 .6.6.5 1.1.5 1.7 0 3.4.1 5.1 0 1.2-.1 1.6.4 1.6 1.6-.1 2.1 0 4.3 0 6.4 0 .5-.1 1.2.6 1.2.8 0 .9-.6.9-1.2-.1-1.3-.1-2.6-.1-3.9" class="st4"/><path d="M91 43.6v4.5c0 1-.4 1.4-1.4 1.4h-6.2c-1 0-1.4-.3-1.4-1.3v-9.1c0-.9.4-1.3 1.3-1.3h6.4c1.1 0 1.3.5 1.3 1.5z" class="st5"/><path d="M92.5 75.9c.4 1.1.1 1.6-1.1 1.5h-8c-1.1 0-1.5-.4-1.5-1.5v-9.3c0-.9.2-1.3 1.2-1.3h8.6c.5 0 1.1 0 .8.8-2.7-.8-5.5-.3-8.3-.4-.6 0-1.5-.3-1.5.7 0 .7.9.8 1.5.8h4.9c1.1 0 1.5.4 1.5 1.5-.1 1.9.1 3.9 0 5.8-.1 1.8.6 1.9 1.9 1.4" class="st2"/><path d="M53.9 57.2c.2 1.6.5 3.2.4 4.8 0 .9-.3 1.4-1.3 1.4h-6.8c-.6 0-1.2-.1-1.2-.9 0-3.5.1-7 .1-10.5 0-.1.2-.2.2-.3 2.7 2.1 5.7 3.8 8.6 5.5" class="st5"/><path d="M92.5 75.9c-1.3.6-2 .4-1.9-1.3.1-1.9 0-3.9 0-5.8 0-1.1-.4-1.5-1.5-1.5-1.6.1-3.2 0-4.9 0-.7 0-1.5-.1-1.5-.8-.1-1 .9-.7 1.5-.7 2.8.1 5.6-.4 8.3.4.2 3.2.2 6.4 0 9.7" class="st6"/><path d="M53.9 57.2c-2.9-1.7-5.9-3.4-8.6-5.4h7.1c1.1 0 1.5.3 1.5 1.4z" class="st7"/><path d="M78.1 48.4v-5.8c0-2.8-.1-2.8-2.8-2.8H34.1c-.4 0-1 .1-1-.6 0-.4.5-.5.9-.5h42.4c2.4 0 2.6.2 2.6 2.5v5.6c-.1.5.2 1.3-.9 1.6" class="st2"/><path d="M75.1 34.5c-2.5-.5-3.8-2.7-5.4-4.3-3.2-3.3-6.3-6.7-9.4-10.1-1.4-1.5-2.7-3-4-4.4-.3-.3-.5-.7-.2-1 .4-.4.7 0 1 .3 6.2 6.1 12.2 12.4 18 18.8.1.1.2.3 0 .7" class="st6"/><path d="M79.3 71.2v4.1c0 .5 0 1-.7.9-.5-.1-.5-.5-.5-.9 0-2-.1-4 0-6 .1-1.6-.5-2-2-1.9-1.6.1-3.2 0-4.9 0-.5 0-1.2 0-1.1-.8.1-.6.7-.4 1.1-.4h6.4c1.2 0 1.7.3 1.6 1.6.1 1 .1 2.2.1 3.4" class="st3"/><path d="M79.3 57.4v4.1c0 .5-.1 1-.7.9-.5-.1-.4-.6-.4-1 0-2.2-.1-4.4 0-6.6 0-1.2-.4-1.6-1.6-1.6-1.8.1-3.6 0-5.4 0-.4 0-.9.1-1-.4-.1-.6.4-.7.9-.7h7c.9 0 1.2.6 1.2 1.4z" class="st6"/><path d="M29.3 71.3V75c0 .6-.2 1.3-.9 1.2-.7 0-.6-.7-.6-1.2v-6.2c0-1.1-.4-1.5-1.5-1.5-1.7.1-3.5 0-5.3 0-.4 0-1 0-1-.6s.6-.6 1-.6h6.6c1.2 0 1.6.6 1.6 1.7.1 1.2.1 2.3.1 3.5" class="st3"/><path d="M42.2 71.3v3.5c0 .6-.1 1.3-.8 1.3-.9.1-.7-.8-.7-1.3 0-2-.1-4 0-6 0-1.2-.4-1.6-1.6-1.6-1.8.1-3.5 0-5.3 0-.4 0-.9-.1-.9-.6s.4-.6.8-.6h7.2c.9 0 1.2.7 1.2 1.5.1 1.4.1 2.6.1 3.8" class="st6"/><path d="M42.2 57.4v3.9c0 .6-.2 1.3-.9 1.2-.7 0-.6-.7-.6-1.2v-6.4c0-1.2-.3-1.6-1.6-1.6-1.7.1-3.4 0-5.1 0-.4 0-1 .1-1.1-.5 0-.8.7-.7 1.1-.7h6.4c1.1 0 1.7.4 1.7 1.6.1 1.3.1 2.5.1 3.7" class="st3"/><path d="M264.9 71.5c0-1.9.1-3.8.1-5.7 0-1.2.5-1.8 1.7-1.7 2.5 0 5.2-.5 6.8 2.2.3 1.6.1 3.1-1.2 4.3-1 .9 0 1.5.5 2.2.1.8.5 1.7-.6 2-1 .3-1.4-.4-1.9-1.1-.3-.4-.6-.9-.9-1.3-.6-1-1.3-1.5-1.9 0 0 .3-.1.5-.1.8 0 .8-.1 1.7-1.2 1.7s-1.2-.9-1.2-1.7c0-.3-.1-.5-.1-.8zm3.6-2.3c1.5-.1 2.7 0 2.7-1.4 0-1.3-1.2-1.4-2.3-1.5s-1.6.2-1.6 1.4c0 1.3.6 1.6 1.2 1.5M231.3 71.1c-.3-4.9 1.4-6.9 6.2-7.1.3 0 .6.1.8.1 1.4.6 2.6 1.5 3.4 2.9-.1.4.1.6.3.8.1.4.1.8.2 1.2v1.3c-.1.4-.1.8-.2 1.2-.3.2-.4.5-.4.8-1.2 1.5-2.6 2.5-4.5 2.7-2.2-.1-4-.9-5.3-2.7-.1-.4-.1-.9-.5-1.2m8.2-.8c.5-.5.5-1.1 0-1.6 0-.6-.3-1-.7-1.3-.8-.9-1.7-1.4-2.9-.8-1.1.2-1.8.9-2 2-.4.5-.4 1.1 0 1.6 0 .6.3 1 .8 1.2 1.2 1.3 2.4 1.5 3.8.3.5-.2.9-.7 1-1.4M190.9 71.5c0-1.7 0-3.4.1-5.1 0-.9-.4-2.3 1.1-2.4 1.5 0 1.1 1.4 1.2 2.3.1.6-.3 1.5.6 1.7.7.2 1.5.1 2.1-.3.6-.5.6-1.2.6-1.8 0-.9 0-1.9 1.3-1.9 1.2.1 1.1 1.2 1.1 2-.1 1.6-.8 3.3.6 4.7.1 1.3.3 2.7-.2 4-2.4.7-1.8-1.2-2.1-2.4.1-2.2-1.6-1.9-2.9-1.9-1.6 0-1.2 1-1.1 1.9 0 .3-.1.5-.1.8-.1.8 0 1.8-1.2 1.8-1.1 0-1.2-.9-1.2-1.7 0-.3-.1-.5-.1-.8.2-.3.2-.6.2-.9M249 71.5c.2-2.4-.5-4.9.4-7.4.4-.1.8-.1 1.3-.2.9.7.7 1.7.8 2.6.2 1.6-.5 3.4.5 4.9 1.1 1.4 2.2 1.4 3.3.1 1.3-1.8.4-3.9.6-5.8.2-1.8.5-2 2.3-1.2-.1 2.6.2 5.2-.3 7.7-1.7 2.6-3.4 3.2-6.8 2.1-.4-.3-.8-.6-1.2-1-.2-.3-.4-.7-.6-1 .1-.3 0-.6-.3-.8M217.6 71c-1.9-1.5-2.2-3.5-2-5.7.1-.7.3-1.2 1.1-1.3.8 0 1.2.5 1.3 1.3 0 .6 0 1.2.1 1.8.2 1.2.9 2 2.2 2s2-.8 2.2-2c.1-.5.1-.9.1-1.4 0-1.6.7-2.1 2.2-1.4.2 1.7.2 3.4-.4 5.1-.4.4-.8.9-1.2 1.3-.7.4-1.8.3-1.6 1.6 0 .3-.1.5-.1.8 0 .8-.1 1.7-1.2 1.7s-1.2-.9-1.2-1.7c0-.3-.1-.5-.1-.8.1-1-.7-1.1-1.4-1.3M165.1 64.1c2.4.9 3.4 2.7 3.4 5.2 0 .7.1 1.5.1 2.2v.9c-.2.9.2 2.1-1 2.7-.3 0-.6-.1-.9-.1-.8-.2-.7-.8-.6-1.4.2-1.4-.6-1.7-1.8-1.4h-.8c-.8-.1-1.8-.5-1.9 1 0 .9 0 1.9-1.3 1.8-1.2-.1-1-1.2-1.1-2 0-.2-.1-.4-.1-.6v-.8c0-.7.1-1.3.1-2 0-3.3 1-4.6 4.2-5.5.5-.1 1.1 0 1.7 0m-2.6 2.9c-.8.5-1 1.2-.9 2.1.7 1.3 1.9.4 2.9.6 1.8.3 1.8-.9 1.2-2-.6-1.3-1.8-1.9-3.2-.7M130.6 71.6c1.1-.9 1.9.1 2.7.5 1.5.7 1.5.7 2.6-.6-1.2-.5-2.3-.9-3.4-1.5-2-1-2.3-3.6-.6-5.1 1.4-1.2 4.2-1.1 5.5.1.5.5.8 1 .5 1.6-.4.7-1 .6-1.6.4-1-.4-2.4-1.3-2.8.1s1.5 1.1 2.4 1.5 1.8.7 2.5 1.4c.4 1.3.4 2.5-.3 3.6-3 2.2-5.9 1.7-7.6-1.2-.1-.3 0-.5.1-.8M175.5 71.5c-.4-1.7-.3-3.4.5-5 .5-.5 1-1 1.4-1.5 1.6-.9 3.3-1.3 5.1-.7.8.3 1.8.6 1.5 1.8-.3 1.1-1.2.8-2 .5-1.8-.6-3.2-.1-4 1.5s-.3 3.1 1.4 3.9c1 .7 2 .7 2.9-.1h1.2c.1.1.3.2.4.4.4 1.2-.2 1.9-1.3 2.3-1.9.7-3.6.2-5.2-.6-.5-.6-1.1-1.1-1.6-1.7-.1-.2-.2-.5-.3-.8M147.7 71.5V67c-.2-1.1-.9-.7-1.6-.6-.7-.2-1.3-.6-1.1-1.4.2-.9.9-.9 1.6-.9 1.5 0 3-.1 4.5-.1.4.1.8.1 1.3.2.9.9.9 1.7-.4 2.3-1.3-.3-1.9.1-1.8 1.5.1 1.5.1 2.9.2 4.4 0 .3-.1.5-.1.8-.1.8 0 1.8-1.2 1.8s-1.2-.9-1.2-1.8c0-.3-.1-.5-.1-.8-.1-.3-.1-.6-.1-.9M299.6 64c.6 0 1.3 0 1.7.6v7.8c-.4.7-.9 1.3-1.3 2-1.3.6-2.6.8-4 .1-.6-.3-1.2-.1-1.7.1-2.8.9-5-.6-5.1-3.5V66c0-.9-.1-2 1.2-1.9 1.3 0 1.2 1.1 1.2 2v4.3c0 .9 0 2 1.2 2s1.3-1 1.3-1.9v-4.7c0-.9.1-1.7 1.3-1.7 1 .1 1.1.9 1.1 1.6v4.9c0 .9.2 1.8 1.2 1.8 1.1 0 1.1-1 1.2-1.8.4-2.2-.5-4.5.7-6.6M312.4 64c1.9 0 3.4.7 4.6 2.2.8 2.7.4 5.5.5 8.2-.9.8-2.1 1-2.1-.3-.1-2.6-1.8-2.1-3.3-2-.8-.2-1.3-.1-1.4.9 0 .6-.2 1.2-.3 1.8-.1.1-.3.1-.4.2-.4-.1-.9-.1-1.3-.2-.6-.7-.3-1.7-.5-2.5v-.9c0-.9.2-1.7.1-2.6-.1-2.3.8-3.8 2.9-4.7.3 0 .7 0 1.2-.1m.4 5.8c.8-.4 2.4.6 2.3-1.2-.1-1.3-.9-2.2-2.2-2.2s-2.2.9-2.3 2.2c-.1 1.9 1.5.7 2.2 1.2M324.3 64.6c1.9-.8 2.3-.6 2.4 1.3 0 .6 0 1.2.2 1.8.3 1 1.1 1.6 2.2 1.5 1 0 1.7-.6 1.9-1.5.2-.6.2-1.3.2-2 0-.8.1-1.6 1.1-1.6 1.1 0 1.2.9 1.2 1.7.1 1.8-.2 3.5-1.5 4.9-2.1.5-2.1 2.1-2 3.8-1.9.9-2.1.7-2.5-2.1.1-.5 0-.9-.4-1-1.5-.6-2.2-1.8-2.9-3.1.1-1.3.1-2.5.1-3.7" class="st8"/><path d="m111.9 35.1-.3-1.2-.1-.8s-.2-.9-.2-1.3c-.1-1.3-.4-3.6 0-5.3.2-1 .8-1.9 1.2-2.9.2-.3.4-.5.6-.8.4-.4.8-.8 1.3-1.1.2-.1.3-.2.5-.3.8-.1 1.7-.2 2.5-.2.6.2 1.2.2 1.7.5.7.4 1.4.9 1.9 1.5.7.8 1.2 1.9 1.8 2.8.3.8.2 2.4 1.8 1 .6-.3 1.2-.6 1.8-.8 1.1-.2 2.2-.3 3.3 0q1.5.3 2.7 1.2c1 .7 1 .8 1.3-.1.7-1.3 1.6-4.2 1.6-4.2l.9-1.5s2.3-3.3 3.4-4c.3-.2.9-.4 1.2-.5.2-.1.6-.2.8-.3s.6-.1.9-.1c.6-.1 1.9-.1 2.5 0 .2 0 .6.2.8.3 1.3.7 3.3 2.5 3.8 4.6.1.3.1.6.1.9.1 2 0 4.6-.2 6.1 0 .2-.2.8-.2.8l-1 3.7-.5 1.6-.8 2.5-.3.8s-2 5.3-2.6 8.1c-.1.2-.2.5-.2.7-1.2 2.2-1.8 4.7-3.5 6.6-.5.3-1 .7-1.5 1-.6.3-1.8.8-1.8.8l-1.3.2h-1.2l-1.3-.2s-2.4-1.4-3.5-2.8c-.6-.8-1.9-1.5-2.7-.2-.3.5-.5 1.1-.9 1.5-.7.7-1.6 1.2-2.6 1.6-3.2 1.3-6-1.3-7.1-2.8-.4-.6-1.3-2.4-1.3-2.4l-.6-2-.6-2.1-.1-.8-.3-1.2-.2-.8-.2-.8-.2-1.2-.2-.8-.2-1.2-.2-.8-.2-1.2-.2-.8zm10.2.2c-.3-1.1-.4-1.7-.6-2.4-.6-2.4-1-4.8-2.3-6.9-.7-1-1.6-1.5-2.8-1.2-1.1.3-1.6 1.2-1.7 2.3-.1.5 0 1.1.1 1.6.8 4 1.5 8 2.4 12 .5 2.4 1 4.8 2.4 6.9 1.4 2.2 3.2 2.2 4.7 0 1.2-1.7 1.7-3.7 2.5-5.6.2-.4-.1-1.1.5-1.2.7-.1 1 .5 1.3 1.1.8 1.8 1.6 3.5 2.9 4.9 2.7 3.1 6.3 2.5 8-1.3 1.6-3.6 2.7-7.4 3.9-11.2 1.1-3.4 2.4-6.8 2.9-10.4.2-1.4.2-3-1.3-3.7-1.8-.9-3.3-.2-4.7 1-1 .9-1.4 2.1-1.9 3.4-1.2 3.3-2.5 6.5-3.8 9.9-2-2.2-3.2-5.3-6.5-5.2-3.4.3-4 3.7-6 6" class="st7"/><path d="M122.1 35.3c2.1-2.3 2.6-5.8 6-5.9 3.3-.1 4.5 3 6.5 5.2 1.3-3.4 2.6-6.7 3.8-9.9.5-1.2.9-2.5 1.9-3.4 1.3-1.2 2.9-1.9 4.7-1 1.5.8 1.5 2.3 1.3 3.7-.5 3.6-1.9 6.9-2.9 10.4-1.2 3.8-2.3 7.5-3.9 11.2s-5.2 4.3-8 1.3c-1.3-1.4-2.1-3.1-2.9-4.9-.3-.6-.6-1.2-1.3-1.1-.6.1-.3.8-.5 1.2-.8 1.9-1.3 3.9-2.5 5.6-1.5 2.1-3.3 2.1-4.7 0s-1.8-4.5-2.4-6.9q-1.35-6-2.4-12c-.1-.5-.2-1.1-.1-1.6.1-1.1.6-2 1.7-2.3 1.2-.3 2.1.2 2.8 1.2 1.3 2.1 1.7 4.6 2.3 6.9.2.6.3 1.3.6 2.3" class="st2"/><path d="M169.8 58.4s-5.8.6-8.6-.3c-1.5-1-3.2-1.7-4.1-3.4-1.1-1.9-2.1-3.8-2.7-5.9-.2-.7-1-1.2-1.4-1.3-.2-.1-.6-.4-.8-.5s-.6-.3-.8-.5c-.4-.5-1.1-1.4-1.4-1.9-1-2-2.2-6.7-1.1-9 .2-.3.6-.9.9-1.2.1-.2.4-.4.7-.5.5-.3 1-.6 1.6-.9.9-.9.9-2.3.9-2.3l.1-.8s1.4-5.3 2.3-6.8c.2-.3.6-.7.8-.9 1-1 3.3-2.7 4.6-3.4.3-.1.8-.4 1.1-.5.2-.1.7-.3.9-.3.5-.1 1.5-.3 2.1-.3 1.7-.1 4.7-.3 7 0 1.4.2 2.8.3 4 .9 1.5.7 2.7 2.5 3.4 3.6.1.2.4.6.4.8.2.7.3 2 .3 2.7 0 .5-.4 1.7-.5 2.2-.2 1.2-1.2 3-2.4 4.1-.8.7-.8 1.5-.6 2.4v3.7c-.1.7.2.7.7.5 3.8 1.3 4.9 6.6 4.9 6.6l.1 1.4v.8l-.1.8s-.1.7-.2.8c-1.1 2-4.3 5.3-6.1 6.7-.3.2-1.4.7-1.4.7l-.9.4-1.1.5-.9.3-.8.2zm-4-6.1c1.6 0 3.1-.3 4.6-.8 3-1.1 5.8-2.5 7.7-5.2 1.4-2 .6-3.7-1.8-4.2-.6-.1-1.2-.2-1.8-.1-2.6.4-5.1.8-7.7 1.2-.9.2-2 .9-2.3-.8-.5-2.6-.2-3.4 1.5-3.8 1.8-.4 3.6-.8 5.2-1.7 1.2-.7 2-1.7 1.7-3.2s-1.4-2.1-2.7-2.4c-1.4-.3-2.8.2-4.3.3-.5 0-1.3.9-1.5-.2-.1-.9-.4-2 .9-2.4.6-.2 1.2-.2 1.8-.3 2.2-.4 4.5-.4 6.5-1.5 1.4-.8 2.5-1.7 2.2-3.5-.3-1.7-1.7-2.3-3.1-2.4-1.8-.2-3.7-.2-5.5-.2-6.6 0-10.3 3.2-10.8 9.7-.2 2.8-.4 5.1-3.7 5.9-1 .3-1.5 1.4-1.4 2.5s1.1 1.9 2 1.7c3.5-.7 3.8 1.6 4.2 4 .2 1 .7 2.1 1.2 3 1.4 3 3.8 4.4 7.1 4.4" class="st7"/><path d="M165.8 52.3c-3.3 0-5.7-1.4-7-4.4-.5-1-1-2-1.2-3-.4-2.4-.7-4.7-4.2-4-.9.2-1.9-.6-2-1.7s.4-2.3 1.4-2.5c3.2-.8 3.5-3.1 3.7-5.9.5-6.5 4.2-9.6 10.8-9.7 1.8 0 3.7 0 5.5.2 1.4.2 2.9.7 3.1 2.4.3 1.8-.8 2.8-2.2 3.5-2 1.1-4.3 1.2-6.5 1.5-.6.1-1.2.1-1.8.3-1.3.4-1 1.6-.9 2.4.2 1.1 1 .2 1.5.2 1.4-.1 2.8-.6 4.3-.3 1.4.3 2.5.9 2.7 2.4.3 1.5-.5 2.5-1.7 3.2-1.6.9-3.4 1.3-5.2 1.7-1.7.4-2 1.2-1.5 3.8.3 1.7 1.4 1 2.3.8 2.6-.4 5.1-.8 7.7-1.2.6-.1 1.2 0 1.8.1 2.4.5 3.2 2.2 1.8 4.2-1.9 2.7-4.7 4.1-7.7 5.2-1.6.5-3.1.7-4.7.8" class="st2"/><path d="M336.8 57.3s-6.3.5-8.2-.2c-1.6-.6-4.2-3.1-5.2-4.6-.4-.6-.7-1.9-1.4-2.8-.2-.7-.5-1.3-.6-2-.2-1.7-1.2-1.3-2.3-1.4-.3 0-.6-.1-.8-.2-.6-.4-1.3-.8-1.7-1.2-.5-.5-1.4-2.5-1.4-2.5l-.2-.8v-4l.1-.8 1.1-2.3.7-.8 3.1-3.4.2-2.1.2-1.2.2-.9s.8-1.9 1.2-2.9c.5-.7.9-1.3 1.4-2 1.7-1.6 5.8-3.8 5.8-3.8l.8-.3.8-.2 1.3-.2 2-.1.9-.1s3.1.1 4.1.1c.5 0 1.6.1 2.1.2 1.3.3 3.2 1.5 4.5 2.7.4.8 1.1 1.5 1.3 2.4.4 1.6.3 3.3 0 4.9-.2 1-.7 2-1.3 2.9-.7 1.2-2.6 1.7-1.8 3.6 0 .3 0 .6-.1.9-.3 3.2-.2 2.8 2.6 3.9.3.1.5.2.7.4.9.7 1.5 1.9 1.9 2.6.1.2.3.8.3.8s.1 2.4.1 3.7v.9c0 .4-.1.9-.1 1.2 0 .2-.2.6-.2.8-.4.8-1.4 2.4-1.9 3.1-.3.4-1.5 1.4-1.5 1.4l-5.7 3.4-2.1.7zm-3.1-6.3c3.6-.2 7.4-1.8 10.5-4.8 1.1-1 2.2-2.3 1.4-3.9s-2.5-1.6-3.9-1.5c-2.7.2-5.3.6-7.9 1.2-.9.2-2.1.7-2.1-.8 0-1.3-1.4-3.2 1.2-3.8 1.9-.4 3.8-.8 5.4-1.7 1.2-.7 2-1.7 1.7-3.2-.3-1.6-1.5-2.2-2.9-2.4s-2.7.2-4.1.3c-.5.1-1.3.8-1.5-.2-.1-.9-.4-2 .9-2.4.6-.2 1.2-.2 1.8-.3 2.2-.4 4.5-.4 6.5-1.5 1.4-.8 2.5-1.8 2.2-3.5-.3-1.6-1.6-2.1-3-2.4-1.9-.4-3.8-.2-5.7-.2-5.5-.1-10.6 3-10.8 9.5-.1 2.9-.4 5.2-3.7 6.1-1 .3-1.6 1.6-1.2 2.7.3 1.1 1.4 1.4 2.4 1.5.4 0 .8.1 1.2 0 1.2-.3 1.7.3 1.9 1.5.3 1.9.9 3.7 1.7 5.4 1.5 3.1 4 4.5 8 4.4" class="st7"/><path d="M333.7 51c-4.1.1-6.5-1.4-7.9-4.4-.8-1.7-1.4-3.5-1.7-5.4-.2-1.1-.6-1.7-1.9-1.5-.4.1-.8 0-1.2 0-1.1-.1-2.1-.4-2.4-1.5-.4-1.2.2-2.5 1.2-2.7 3.3-.9 3.7-3.3 3.7-6.1.2-6.5 5.3-9.6 10.8-9.5 1.9 0 3.8-.2 5.7.2 1.4.3 2.7.7 3 2.4.3 1.8-.8 2.8-2.2 3.5-2 1.1-4.3 1.2-6.5 1.5-.6.1-1.2.1-1.8.3-1.3.4-1.1 1.5-.9 2.4.2 1 1 .3 1.5.2 1.4-.1 2.7-.5 4.1-.3 1.5.2 2.6.9 2.9 2.4s-.5 2.5-1.7 3.2c-1.7 1-3.6 1.3-5.4 1.7-2.6.5-1.2 2.5-1.2 3.8 0 1.6 1.2 1 2.1.8 2.6-.6 5.2-1 7.9-1.2 1.5-.1 3.2-.1 3.9 1.5.8 1.6-.3 2.9-1.4 3.9-3.2 3-7 4.6-10.6 4.8" class="st2"/><path d="M249.7 42c-.5-4.4-.5-8.7-.1-13.1.3-1.4.7-2.7 1-4.1.5-1.4 1.1-2.7 1.6-4.1 2-2.8 4.8-3.1 7.8-2.1.4.3.9.6 1.3.9.3.3.8.9.8.9l.9 1.6s.1.5.2.8v8.5h.6c1.2-3.2 3.7-9.7 3.7-9.7l.1-.2.7-1 2.1-2.1c1.4-.7 3-1.1 4.6-1 2.8.8 4.8 2.6 5.5 5.5v7l-.2 1.2-.2.8-.2.8-.3.8-.5 1.6s-.2.5-.3.8c-1.2 2.5-3.7 7.6-3.7 7.6l-.7 1.1-1 1.7-1.8 2.4-.6.6-.8.9-2.8 2.2-1.1.5-1.7.4-1.2.3-.8.2h-3.7l-.8-.2-.8-.3-1.4-.7-1-.7-2.5-2.8-1.4-2.8-.8-2.5-.2-.8c-.2-.1-.3-.6-.3-.9M260 29.3c.1-1.3.2-3.2 0-5.1-.2-1.3-.6-2.4-2.1-2.6s-2.6.4-3.1 1.8c-2.4 6.1-3.2 12.4-.6 18.7 2.6 6.2 9.7 7.2 14.1 2.1 3.9-4.5 6.5-9.7 8.1-15.4.4-1.5.7-3 .6-4.6s-.8-2.9-2.5-3.4c-1.6-.5-2.6.5-3.5 1.6-.8 1-1.3 2.1-1.7 3.2-.9 2.6-1.8 5.1-2.7 7.7a9.4 9.4 0 0 1-2 3.5c-.8.9-1.6 1.9-2.9 1.5-1.4-.4-1.8-1.7-1.9-2.9.1-1.9.2-3.8.2-6.1" class="st7"/><path d="M260 29.3c0 2.4-.1 4.2 0 6 .1 1.2.4 2.5 1.9 2.9 1.3.4 2.1-.6 2.9-1.5.9-1 1.5-2.2 2-3.5.9-2.6 1.8-5.1 2.7-7.7.4-1.2.9-2.3 1.7-3.2.9-1.1 1.8-2.1 3.5-1.6s2.3 1.8 2.5 3.4c.1 1.6-.1 3.1-.6 4.6-1.7 5.7-4.3 10.9-8.1 15.4-4.4 5.1-11.5 4.1-14.1-2.1-2.6-6.3-1.8-12.5.6-18.7.5-1.4 1.6-2 3.1-1.8s1.9 1.3 2.1 2.6c0 1.9-.1 3.8-.2 5.2" class="st2"/><path d="m238.9 57.6-2.5.7-.8.2h-4.2l-1.2-.2-2.1-.6-1.3-.4-1.5-.6-1-.6-1-.7-1.6-1.6c-.1-.5-.9-1.2-.9-1.2l-.7-1.1-.6-1s-.5-.9-.7-1.3c-1.7-4.6-1.5-12.1 1.5-15.8.3-.5.6-.9.8-1.2.2-.2.5-.6.8-.9l3.2-3.2.2-.2 1.3-.9 2-1.6s1.6-.5 2.3-1.1c1-.4 2.9-1.2 2.9-1.2l.8-.3.8-.2.9-.2s.8-.1 1.2-.2h.9c1.8.1 3.7.5 4.9 1.9.8 1 1.4 2.3 1.7 3.7.4 1.9 0 5.7 0 5.7l-.2.8-.5 1.3-.7 1.3s-.8.4-.6.9c.1.4.5.4.8.3 3.2 1.2 4.5 3.7 4.5 7 0 1.1.1 2.3.1 3.4 0 .3-.1.5-.1.8-.8 2.1-2 3.9-3.9 5.3-1.7 1.2-5.5 3-5.5 3M221.5 41c0 3.8 2.2 7.8 5.1 9.2 5.9 2.8 11.3 1.9 16.3-2 2-1.5 2.6-3.8 1.5-5.6-1.2-2.1-3.1-1.5-4.9-1-2 .6-3.9 1.6-6.1 1.6-1.7 0-3.2-.3-3.7-2.2s.1-3.4 2.1-4.4c1.7-.8 3.4-1.4 5.1-2.1 1.5-.6 2.8-1.4 3.7-2.7 1.1-1.6 1.5-3.4.4-5.2s-2.9-1.3-4.5-.9c-5.1 1.3-9.2 4.1-12.5 8.1-1.5 2.1-2.5 4.5-2.5 7.2" class="st7"/><path d="M221.5 41c0-2.7 1-5.1 2.6-7.1 3.2-4.1 7.4-6.8 12.5-8.1 1.5-.4 3.3-.9 4.5.9 1.1 1.8.7 3.5-.4 5.2-.9 1.3-2.2 2.2-3.7 2.7-1.7.7-3.5 1.3-5.1 2.1-1.9.9-2.6 2.5-2.1 4.4s2 2.2 3.7 2.2c2.2 0 4.1-1 6.1-1.6 1.8-.5 3.7-1.2 4.9 1 1 1.8.4 4.1-1.5 5.6-5 3.9-10.4 4.8-16.3 2-2.9-1.5-5.2-5.5-5.2-9.3" class="st2"/><path d="m303.4 57.3-2.7 1.6-.9.3-2.1.7-1.6.3h-3.8l-.8-.2-.8-.2s-1.7-.6-2.6-.9c-1-.7-2-1.3-3.1-2-.4-.5-1.3-1.5-1.3-1.5l-.9-1.9-.4-1.3-.2-.8s-.1-.5-.1-.8c.1-2.6 0-5.9.4-7.8.2-.8.9-2.2.8-3.1-.1-1.6-.3-4.5-.5-6.7.1-1.6.2-4.9.2-4.9l.3-2.9.1-1.2s1-4.1 1.2-6.1c.1-.4.2-.9.3-1.3v-.1c.1-.1 0-.2.1-.3.1-1.3 1.2-2.4 2.3-3.1 2.1-1.3 5.5-.4 7.2-.1.3.1 1.3.2 1.3.2l1.2.3 1.3.3 1.8.7s.9.4 1.1.5c1.8 1.3 5.1 4.6 6.1 6.6.2.3.4 1.2.4 1.2l.3 1.2s.1.9.2 1.3c.2 1 .6 3.1 1.2 3.9.2.3 1 .8 1.2 1.1.5.6 1.8 2.8 1.8 2.8l.7 1.7.2 1.2.2 1.3v4.9l-.1.9-.6 2.5-.5 1.5-1.4 2.6-1.5 2.3zm-11.6-41.2c-3.5-.1-3.5-.1-4.2 3.4-1.3 6.4-1.4 12.8-1.2 19.3 0 1.8.4 3.6-.8 5.3-.5.7-.4 1.7-.3 2.6.6 4.2 3.7 6.7 8.3 6.9 7.5.2 15.9-7.9 16-15.5 0-2.9-.7-5.5-3.4-6.7-2.1-1-2.1-2.3-1.9-4.1.5-3.9-1.4-7.5-4.9-9.3-2.3-1.4-4.9-1.9-7.6-1.9" class="st7"/><path d="M291.8 16.1c2.7 0 5.3.5 7.7 1.8 3.5 1.8 5.4 5.4 4.9 9.3-.2 1.8-.2 3.1 1.9 4.1 2.6 1.3 3.4 3.8 3.4 6.7-.1 7.6-8.5 15.8-16 15.5-4.7-.2-7.8-2.7-8.3-6.9-.1-.9-.2-1.9.3-2.6 1.2-1.7.9-3.5.8-5.3-.1-6.5-.1-12.9 1.2-19.3.6-3.4.6-3.3 4.1-3.3m4.6 25.7c1-.2 2.9 0 3.2-1.8.2-1.2-1.3-1.1-2-.9-1.2.2-3-.5-3.1 1.6-.2 1.1.6 1.1 1.9 1.1m-1.8-12.4c1.3-1.3 2.1-2.3 2.2-3.8 0-.6-.3-1.1-.9-1.2-.7-.1-.6.5-.8.9-.3 1.3-.6 2.5-.5 4.1" class="st2"/><path d="M296.4 41.8c-1.3.1-2 0-1.9-1.1.2-2.1 2-1.4 3.1-1.6.7-.1 2.2-.3 2 .9-.4 1.8-2.3 1.5-3.2 1.8M294.6 29.4c-.1-1.7.2-2.9.6-4.1.1-.4.1-1.1.8-.9.6.1.9.6.9 1.2-.2 1.5-1 2.6-2.3 3.8" class="st8"/><path d="m191.1 59.8-2.7-1.4s-2-2.6-2.6-4.1c-.7-2.4-.7-4.9-1-7.4q1.65-5.55.9-11.4c.3-1.5.3-3 .1-4.5 0-.5 0-1.1.1-1.6.4-3 .8-6.8 1.2-9 0-.2.1-.6.2-.8.1-.4.3-1.3.4-1.7 0-.2.1-.6.1-.8.1-.2.2-.6.3-.8s.2-.5.3-.6c.3-.5 1.1-1.5 1.7-1.8 1.6-.7 5.2-.3 6.9-.1.4 0 1.3.1 1.7.2.2 0 .6.1.8.2.5.1 1.6.2 2 .5 2.6 1.2 7.2 5.2 8.6 7.8.2.3.3.9.4 1.2s.2.9.2 1.2c0 .2.2.6.2.9 0 1.2.9 3.7 1.6 4.7.2.3.9.9 1.2 1.2.6.7 1.2 2.1 1.8 3.1 1.1 4.4.8 8.8-.5 13.1-.5.9-1.4 2.6-1.4 2.6l-1.5 2.3-5.8 5.6-2.7 1.6-2.2.8-1.2.3-2.5.3h-2.1zm4.2-42.8c-4.2 0-3.7-.6-4.5 3.1-.7 3.2-.8 6.5-1.2 9.7-.7 5.3 1.3 10.8-1.1 16-.1.1 0 .3 0 .4-.2 4.7 3 8 8.2 8.2 7.6.3 16.4-8.4 16.2-16-.1-2.8-1.2-5.2-3.8-6.5-1.4-.7-1.7-1.3-1.5-2.8.7-5.9-2.2-10-8-11.5-1.6-.5-3.1-.7-4.3-.6" class="st7"/><path d="M195.3 17c1.2-.1 2.7.2 4.3.6 5.8 1.5 8.7 5.6 8 11.5-.2 1.5.1 2.1 1.5 2.8 2.6 1.3 3.7 3.7 3.8 6.5.2 7.6-8.5 16.3-16.2 16-5.2-.2-8.4-3.4-8.2-8.2v-.4c2.4-5.2.4-10.7 1.1-16 .4-3.2.5-6.5 1.2-9.7.8-3.7.4-3.1 4.5-3.1m3.8 25.7c1.4-.3 3.3 0 3.6-1.8.2-1.1-1.2-1-1.8-1-1.2.2-2.9-.4-3.3 1.4-.2.9.4 1.5 1.5 1.4m.8-15.9c.1-.9-.2-1.4-.8-1.5-.8-.2-.7.6-.9 1-.1.3-.1.5-.2.8-.2.8-1.3 2-.2 2.4s1.4-1.3 1.9-2.2c.2-.2.2-.5.2-.5" class="st2"/><path d="M199.1 42.7c-1.1.1-1.7-.4-1.5-1.4.4-1.8 2.1-1.3 3.3-1.4.6-.1 2.1-.1 1.8 1-.4 1.7-2.2 1.5-3.6 1.8M199.9 26.8s0 .3-.1.5c-.5.9-.8 2.5-1.9 2.2-1.1-.4 0-1.6.2-2.4.1-.3.1-.5.2-.8.2-.5.1-1.2.9-1 .5.1.8.6.7 1.5" class="st8"/></svg>