<svg version="1.1" xmlns="http://www.w3.org/2000/svg" viewBox="0 0 340 340">
    <defs>
        <radialGradient id="smallGradient" fy="90%">
            <stop offset="0%" stop-color="#f4c708" />
            <stop offset="100%" stop-color="#f7e69a" />
            <animate attributeName="fy" dur="700ms" from="90%" to="0%" repeatCount="indefinite" />
        </radialGradient>
        <radialGradient id="largeGradient" fy="90%">
            <stop offset="0%" stop-color="#ff8806" />
            <stop offset="100%" stop-color="#d9574a" />
            <animate attributeName="fy" dur="700ms" from="90%" to="0%" repeatCount="indefinite" />
        </radialGradient>
    </defs>
    <line x1="110" y1="240" x2="250" y2="320" stroke="#7A5034" stroke-width="40" />
    <line x1="110" y1="320" x2="250" y2="240" stroke="#7A5034" stroke-width="40" />
    <path class="outer-flame" fill="url(#largeGradient)" transform="translate(90,0)"
      d="M82.579,210.049c-4.315-0.393-8.678-1.158-12.676-2.352c-19.553-5.839-36.385-22.93-40.572-43.069
      c-1.102-5.301-1.471-11.261-0.887-16.656c1.646-15.209,8.889-31.008,16.749-43.975C55.992,86.183,67.031,68.265,74.26,48.634
      c2.079-5.647,3.825-11.421,5.117-17.299c2.019-9.181,3.897-21.151-3.384-28.647c14.729,15.163,27.537,32.13,38.675,50.078
      c4.029,6.492,7.841,13.117,11.454,19.849c3.744,6.976,7.259,14.075,10.524,21.288c4.38,9.678,7.966,19.728,10.488,30.052
      c4.66,19.078,9.751,43.266-2.968,60.391c-5.683,7.652-12.951,13.902-21.589,17.991c-10.308,4.879-22.085,8.124-33.541,8.032
      C86.931,210.352,84.761,210.248,82.579,210.049z" />
    <path class="inner-flame" fill="url(#smallGradient)"  transform="translate(90,0)"
      d="M90.043,116.799c-4.024,9.712-12.607,17.546-17.863,26.662c-5.921,10.268-11.892,23.039-9.362,35.209
      1.865,8.974,9.366,16.589,18.078,19.191c1.782,0.532,3.726,0.873,5.648,1.048c0.972,0.089,1.939,0.135,2.877,0.143
      c5.104,0.041,10.352-1.405,14.945-3.579c3.849-1.822,7.087-4.607,9.62-8.017c7.656-10.307,3.202-24.177-1.21-34.838
      c-6.142-14.841-15.085-28.459-22.297-42.793C91.464,111.781,91.118,114.204,90.043,116.799z" />
</svg>