<svg xmlns="http://www.w3.org/2000/svg" xml:space="preserve" id="Layer_1" x="0" y="0" version="1.1" viewBox="0 0 32 32"><style>.st2{fill:#b3dfe9}.st3{fill:#55c1d9}.st4{fill:#21a2bc}.st5{fill:#0c5e70}.st6{fill:#ecf7f9}</style><path d="M25.5 14q0 .15.3.3c.1.2.1.5.1.7v2.1c-.1.1-.1.3 0 .4v.4c-.1 1.1-.1 2.3 0 3.4-.1.2-.1.3 0 .5-.1 1.7-.2 1.3 1.3 1.4h2.1q.6 0 .6.6v2.3c0 1.1 0 1.1 1.1 1 .1 0 .3 0 .4.1.3.3.1.6-.2.9-.6.1-1.1.4-1.7.6-.3.1-.5.1-.8.2s-.6.1-1 .2h-15c-1.1-.1-2.3-.1-3.4 0h-.2C7.9 29 6.8 29 5.6 29H.9l-.3-.3c.1-.7.7-.7 1.1-.9.3.1.4-.1.4-.4v-2.2c0-.6.1-1.1.1-1.7.2-.1.5-.1.7-.1h2.8c.4.1.5 0 .5-.4v-1.4c.1-1.1 0-2.3 0-3.4v-3.1c0-.2 0-.5.2-.7.1 0 .2-.1.2-.2.9-.8 1.7-1.7 2.5-2.6.4-.3.8-.7 1.1-1.1.9-.8 1.8-1.7 2.6-2.6.1-.1.3-.2.3-.3.2-.1.3-.2.4-.4.1 0 .2-.2.3-.3.9-.2 1.8 0 2.6-.1h.1c.8-.2 1.5-.4 2.2.2 0 .1.1.2.2.2.2.3.5.6.8.8.1.3.4.4.6.6.7.7 1.3 1.4 2 2l.1.1c.5.4.8 1 1.4 1.4 0 .1 0 .1.1.1.4.7 1 1.3 1.6 1.8m-11.9 7.3V20c0-.3-.1-.5-.5-.5h-2.2l-.1.1v3.3c0 .3.2.3.4.3h2.1c.3 0 .4-.1.4-.4.1-.5 0-1-.1-1.5m.9-1.8c-.3 0-.2.2-.2.3v6.9c0 .4.1.5.5.5h2.6c.4 0 .5-.2.5-.5V20c0-.1.1-.4-.2-.4h-1.4c-.6-.1-1.2-.1-1.8-.1m11.3 4.6c.1-.3-.1-.3-.3-.3h-2.7c-.3 0-.4.1-.4.4v2.9c0 .3.1.5.5.5h2.5c.4 0 .5-.1.4-.5zm-11.5-5.3h6.9c.4 0 .6-.1.6-.6v-2.7c0-.4-.1-.5-.5-.5H7.2c-.4 0-.5.1-.5.5v2.6c0 .5.1.7.6.7zm-.1-4.3h6.5c.2 0 .4.1.5-.1s-.1-.3-.2-.4c-2.1-2.2-4.2-4.3-6.3-6.5-.3-.3-.5-.3-.8 0-2.1 2.2-4.2 4.3-6.4 6.5-.1.1-.4.2-.3.4s.3.1.5.1zm1.2-7.3c0 .3.2.4.3.5 1.7 1.8 3.5 3.5 5.1 5.4 1 1.2 2.1 1.7 3.5 1.4h.1c.1 0 .3.1.4-.1s-.1-.3-.2-.4l-6.3-6.6c-.1-.1-.2-.3-.4-.3-.9.1-1.7.1-2.5.1m-4.6 18.4v1.6c0 .3.1.5.4.5h2q.6 0 .6-.6V25c0-1.1 0-1.1-1.1-1.1-.6 0-1.3-.3-1.7.1-.5.3-.2 1.1-.2 1.6m7.6-.1v1.6c0 .4.2.5.5.5h2.4c.4 0 .5-.2.5-.5v-1.7c0-1.6 0-1.6-1.6-1.6-.6 0-1.3-.3-1.7.1-.3.4 0 1.2-.1 1.6m0-4.3v1.6c0 .3.1.4.4.4h2.6c.3 0 .4-.1.4-.4V21c0-1.6 0-1.6-1.6-1.6-.6 0-1.3-.3-1.7.1-.4.5 0 1.2-.1 1.7m8 4.5v1.5c0 .3.1.5.5.5h1.9c.4 0 .5-.1.5-.5v-2.9c0-.4-.1-.5-.5-.4h-1.7c-.6-.1-.8.1-.8.7.2.3.1.7.1 1.1m-4-4.4v1.5c0 .3.1.4.4.4h2c.3 0 .4-.1.4-.4v-2.9c0-.3-.1-.4-.4-.4h-2c-.3 0-.4.1-.4.4.1.5 0 .9 0 1.4M6.1 25.7v-1.4c0-.3-.1-.5-.4-.5H3.1c-.3 0-.4.1-.4.4v2.9c0 .3.1.5.5.5h2.6c.3 0 .4-.2.4-.4-.1-.5-.1-1-.1-1.5m4.1.2v-1.6c0-.3-.1-.4-.4-.4H7.2c-.3 0-.4.1-.4.4v1.8c0 1.6 0 1.6 1.6 1.6.6 0 1.3.2 1.7-.1.3-.4 0-1.2.1-1.7m0-4.4V20c0-.3-.1-.5-.5-.5H7.2c-.4 0-.5.1-.4.5v1.8c0 1.5 0 1.6 1.6 1.5.6 0 1.3.2 1.7-.1.3-.4 0-1.2.1-1.7M25.3 17v-1.4c0-.3-.1-.5-.4-.5h-2c-.3 0-.4.1-.4.4v2.9c0 .3.1.4.4.4h2c.3 0 .4-.1.4-.4z" style="fill:#0f3941"/><path d="M14.3 18.8H7.4c-.5 0-.7-.2-.6-.7v-2.6c0-.4.1-.5.5-.5h14.1c.4 0 .5.2.5.5v2.7c0 .5-.2.6-.6.6zm6.9-.3c.4-.1.3-.3.3-.5v-1.8c0-.7-.1-.8-.8-.8H7.3c-.1 0-.3 0-.3.2s.2.2.3.2h12.9c.9 0 .9 0 .9.9.1.6.1 1.2.1 1.8" style="fill:#2197b3"/><path d="M14.2 14.5H7.7c-.2 0-.4.1-.5-.1s.2-.3.3-.4c2.1-2.2 4.2-4.3 6.4-6.5.3-.3.5-.3.8 0 2.1 2.2 4.2 4.3 6.3 6.5.1.1.3.2.2.4s-.3.1-.5.1zm6.1-.4c.1-.1 0-.2 0-.3-1.8-2-3.7-4-5.7-5.9-.1-.1-.2-.2-.3-.1s0 .2.1.3c.4.5.8.9 1.3 1.4 1 1.1 1.9 2.1 3 3.2.4.6.8 1.2 1.6 1.4" class="st2"/><path d="M15.4 7.2h2.5c.2 0 .3.2.4.3l6.3 6.6c.1.1.3.2.2.4-.1.1-.3.1-.4.1h-.1c-1.5.3-2.6-.3-3.5-1.4-1.6-1.9-3.4-3.6-5.1-5.4-.1-.2-.3-.3-.3-.6M10.8 25.6c.1-.5-.3-1.3.1-1.7s1.1-.1 1.7-.1c1.1 0 1.1 0 1.1 1.1V27c0 .4-.1.6-.6.6h-2c-.4 0-.5-.1-.4-.5s.1-.9.1-1.5" class="st3"/><path d="M18.4 25.5c0-.5-.2-1.2.1-1.6.4-.4 1.1-.1 1.7-.1 1.6 0 1.6 0 1.6 1.6v1.7c0 .4-.1.5-.5.5h-2.4c-.4 0-.6-.1-.5-.5zm3.2.2v-1.1c0-.4-.1-.5-.5-.5h-2c-.1 0-.3-.1-.4.1 0 .2.2.2.3.2h1.5c.5 0 .7.1.6.6v1.9c0 .1 0 .3.2.3s.2-.1.2-.3c.1-.4.1-.8.1-1.2" class="st4"/><path d="M18.4 21.2c.1-.5-.3-1.3.1-1.7s1.1-.1 1.7-.1c1.6 0 1.6 0 1.6 1.6v1.8c0 .3-.1.4-.4.4h-2.6c-.3 0-.4-.1-.4-.4zm3.2.2v-1.2c0-.3-.1-.4-.4-.4H19c-.1 0-.3 0-.3.2s.2.1.3.1h1.7c.4 0 .5.1.5.5v2.1c0 .1 0 .3.1.3.2 0 .2-.1.2-.3.1-.5.1-.9.1-1.3" class="st2"/><path d="M26.4 25.7v-1.2c-.1-.6.2-.8.8-.7h1.7c.3 0 .5.1.5.4v2.9c0 .4-.1.5-.5.5H27c-.3 0-.5-.1-.5-.5-.1-.4-.1-.9-.1-1.4M22.4 21.3v-1.4c0-.3.1-.4.4-.4h2c.3 0 .4.1.4.4v2.9c0 .3-.1.4-.4.4h-2c-.3 0-.4-.1-.4-.4.1-.5 0-1 0-1.5" class="st3"/><path d="M6.1 25.7v1.5c0 .3-.1.5-.4.4H3.1c-.4 0-.5-.2-.5-.5v-2.9c0-.3.1-.4.4-.4h2.6c.4 0 .5.1.4.5.1.5.1 1 .1 1.4m-.2 0v-1.1c0-.4-.1-.5-.5-.5H3.3c-.1 0-.3 0-.3.2s.2.2.3.2H5c.3 0 .5.1.5.5v2c0 .2 0 .4.2.4s.3-.2.3-.4c-.1-.5-.1-.9-.1-1.3" class="st4"/><path d="M10.2 25.9c-.1.5.3 1.3-.1 1.7-.4.3-1.1.1-1.7.1-1.6 0-1.6 0-1.6-1.6v-1.8c0-.3.1-.4.4-.4h2.6c.3 0 .4.1.4.4-.1.5 0 1 0 1.6m-.3-.2v-1.2c0-.3-.1-.5-.4-.5H7.2c-.1 0-.3 0-.3.2s.1.2.3.2h1.7c.4 0 .5.1.5.5v1.9c0 .2-.1.4.2.4.2 0 .3-.2.3-.4z" class="st2"/><path d="M10.2 21.5c-.1.5.3 1.3-.1 1.7-.4.3-1.1.1-1.7.1-1.6 0-1.6 0-1.6-1.5V20c0-.3.1-.5.4-.5h2.5c.4 0 .5.2.5.5zm-.3-.1v-1.2c0-.4-.2-.5-.5-.5h-2c-.2 0-.4 0-.4.2s.2.2.3.2h1.6c.4 0 .5.1.5.5v2c0 .2 0 .4.2.4s.3-.2.3-.4z" class="st4"/><path d="M25.3 17v1.4c0 .3-.1.4-.4.4h-2c-.3 0-.4-.1-.4-.4v-2.9c0-.3.1-.4.4-.4h2c.3 0 .4.2.4.5z" class="st5"/><path d="M25.8 27.2c.1.3 0 .5-.4.5h-2.5c-.3 0-.5-.1-.5-.5v-2.9c0-.3.1-.4.4-.4h2.7c.2 0 .4 0 .3.3-.9-.3-1.8-.2-2.6-.2-.2 0-.5-.1-.5.2 0 .2.3.3.5.3h1.5c.3 0 .5.1.5.5v1.8c-.1.5.2.5.6.4" class="st2"/><path d="M13.6 21.3c.1.5.1 1 .1 1.5 0 .3-.1.5-.4.4h-2.1c-.2 0-.4 0-.4-.3v-3.3l.1-.1c.9.7 1.8 1.2 2.7 1.8" class="st5"/><path d="M25.8 27.2c-.4.2-.6.1-.6-.4V25c0-.3-.1-.5-.5-.5h-1.5c-.2 0-.5 0-.5-.3s.3-.2.5-.2c.9 0 1.8-.1 2.6.1z" class="st6"/><path d="M13.6 21.3c-.9-.5-1.9-1.1-2.7-1.7h2.2c.3 0 .5.1.5.5z" style="fill:#114752"/><path d="M21.2 18.5v-1.8c0-.9 0-.9-.9-.9H7.4c-.1 0-.3 0-.3-.2 0-.1.2-.2.3-.2h13.4c.8 0 .8.1.8.8V18c-.1.2 0 .4-.4.5" class="st2"/><path d="M20.3 14.1c-.8-.2-1.2-.8-1.7-1.4-1-1-2-2.1-3-3.2-.4-.5-.9-.9-1.3-1.4-.1-.1-.2-.2-.1-.3s.2 0 .3.1c1.9 1.9 3.8 3.9 5.7 5.9.1.1.2.2.1.3" class="st6"/><path d="M21.6 25.7V27c0 .1 0 .3-.2.3s-.2-.2-.2-.3v-1.9c0-.5-.2-.6-.6-.6h-1.5c-.2 0-.4 0-.3-.2 0-.2.2-.1.4-.1h2c.4 0 .5.1.5.5-.1.2-.1.6-.1 1" class="st3"/><path d="M21.6 21.4v1.3c0 .1 0 .3-.2.3s-.1-.2-.1-.3v-2.1c0-.4-.1-.5-.5-.5h-1.7c-.1 0-.3 0-.3-.1 0-.2.1-.2.3-.2h2.2c.3 0 .4.2.4.4-.1.3-.1.7-.1 1.2" class="st6"/><path d="M5.9 25.7v1.2c0 .2-.1.4-.3.4s-.2-.2-.2-.4v-2c0-.3-.1-.5-.5-.5H3.2c-.1 0-.3 0-.3-.2s.2-.2.3-.2h2.1c.4 0 .5.2.5.5.1.5.1.8.1 1.2" class="st3"/><path d="M9.9 25.7v1.1c0 .2 0 .4-.3.4s-.2-.2-.2-.4v-1.9c0-.4-.1-.5-.5-.5H7.2c-.1 0-.3 0-.3-.2s.1-.2.3-.2h2.3c.3 0 .4.2.4.5z" class="st6"/><path d="M9.9 21.4v1.2c0 .2-.1.4-.3.4s-.2-.2-.2-.4v-2c0-.4-.1-.5-.5-.5H7.3c-.1 0-.3 0-.3-.2s.2-.2.4-.2h2c.4 0 .5.1.5.5z" class="st3"/></svg>